<svg version="1.1" viewBox="0 0 16 16" xmlns="http://www.w3.org/2000/svg">
 <style id="current-color-scheme" type="text/css">.ColorScheme-Text {
            color:#eff0f1;
        }</style>
 <g class="ColorScheme-Text" fill="currentColor">
  <path d="m4 2v7.293l-1.1465-1.1465a0.5 0.5 0 0 0-0.37695-0.14648 0.5 0.5 0 0 0-0.33008 0.14648 0.5 0.5 0 0 0 0 0.70703l2 2a0.50005 0.50005 0 0 0 0.70703 0l2-2a0.5 0.5 0 0 0 0-0.70703 0.5 0.5 0 0 0-0.70703 0l-1.1465 1.1465v-7.293z"/>
  <path d="m4 12v1h10v-1z"/>
  <path d="m9 8v1h5v-1z"/>
  <path d="m9 4v1h5v-1z"/>
 </g>
</svg>
