<svg version="1.1" viewBox="0 0 16 16" xmlns="http://www.w3.org/2000/svg">
 <style id="current-color-scheme" type="text/css">.ColorScheme-Text {
            color:#eff0f1;
        }</style>
 <path d="m3.5078 2.916a0.5835 0.5835 0 0 0-0.41992 0.17188 0.5835 0.5835 0 0 0 0 0.82422l4.0879 4.0879-4.0879 4.0879a0.5835 0.5835 0 0 0 0 0.82422 0.5835 0.5835 0 0 0 0.82422 0l4.0879-4.0879 4.0879 4.0879a0.5835 0.5835 0 0 0 0.82422 0 0.5835 0.5835 0 0 0 0-0.82422l-4.0879-4.0879 4.0879-4.0879a0.5835 0.5835 0 0 0 0-0.82422 0.5835 0.5835 0 0 0-0.4043-0.17188 0.5835 0.5835 0 0 0-0.41992 0.17188l-4.0879 4.0879-4.0879-4.0879a0.5835 0.5835 0 0 0-0.4043-0.17188z" class="ColorScheme-Text" fill="currentColor"/>
</svg>
